<?xml version="1.0" encoding="UTF-8"?>
<!DOCTYPE svg PUBLIC "-//W3C//DTD SVG 1.1//EN" "http://www.w3.org/Graphics/SVG/1.1/DTD/svg11.dtd">
<!-- Creator: CorelDRAW X7 -->
<svg xmlns="http://www.w3.org/2000/svg" xml:space="preserve" width="29.6334mm" height="7.9376mm" version="1.1" style="shape-rendering:geometricPrecision; text-rendering:geometricPrecision; image-rendering:optimizeQuality; fill-rule:evenodd; clip-rule:evenodd"
viewBox="0 0 2963 794"
 xmlns:xlink="http://www.w3.org/1999/xlink">
 <defs>
  <style type="text/css">
   <![CDATA[
    .fil0 {fill:white}
   ]]>
  </style>
 </defs>
 <g id="Layer_x0020_1">
  <metadata id="CorelCorpID_0Corel-Layer"/>
  <path class="fil0" d="M2963 0l0 794 -2963 0 0 -794 2963 0zm-2646 257l-62 0 0 62 186 0 0 249 -310 0 0 -125 124 0 0 32 62 0 0 -63 -186 0 0 -248 310 0 0 124 -124 0 0 -31zm156 249l0 -342 124 0 0 248 62 0 0 -248 124 0 0 342 -310 0zm310 31l0 93 -310 0 0 -93 310 0zm155 -280l0 62 62 0 0 -62 -62 0zm0 155l0 156 -124 0 0 -404 311 0 0 248 -187 0zm342 0l186 0 0 94 -310 0 0 -342 310 0 0 93 -186 0 0 31 186 0 0 93 -186 0 0 31zm186 125l0 93 -310 0 0 -93 310 0zm155 -280l0 62 62 0 0 -62 -62 0zm62 155l-62 0 0 156 -124 0 0 -404 311 0 0 155 -47 47 47 46 0 156 -125 0 0 -156zm156 156l0 -156 124 0 0 63 62 0 0 -311 124 0 0 404 -310 0zm466 -156l186 0 0 94 -311 0 0 -342 311 0 0 93 -186 0 0 31 186 0 0 93 -186 0 0 31zm186 125l0 93 -311 0 0 -93 311 0zm155 -125l186 0 0 94 -310 0 0 -342 310 0 0 93 -186 0 0 31 186 0 0 93 -186 0 0 31zm186 125l0 93 -310 0 0 -93 310 0z"/>
 </g>
</svg>
