<?xml version="1.0" encoding="UTF-8"?>
<!DOCTYPE svg PUBLIC "-//W3C//DTD SVG 1.1//EN" "http://www.w3.org/Graphics/SVG/1.1/DTD/svg11.dtd">
<!-- Creator: CorelDRAW X7 -->
<svg xmlns="http://www.w3.org/2000/svg" xml:space="preserve" width="29.6334mm" height="7.9376mm" version="1.1" style="shape-rendering:geometricPrecision; text-rendering:geometricPrecision; image-rendering:optimizeQuality; fill-rule:evenodd; clip-rule:evenodd"
viewBox="0 0 2963 794"
 xmlns:xlink="http://www.w3.org/1999/xlink">
 <defs>
  <style type="text/css">
   <![CDATA[
    .fil0 {fill:white}
   ]]>
  </style>
 </defs>
 <g id="Layer_x0020_1">
  <metadata id="CorelCorpID_0Corel-Layer"/>
  <path class="fil0" d="M2963 0l0 794 -2963 0 0 -794 2963 0zm-2385 136l0 522 -161 0 0 -402 -80 0 0 402 -161 0 0 -522 402 0zm321 120l0 402 -161 0 0 -402 -120 0 0 -120 402 0 0 120 -121 0zm563 -120l0 522 -161 0 0 -402 -81 0 0 402 -160 0 0 -522 402 0zm40 522l0 -522 160 0 0 402 81 0 0 -81 160 0 0 201 -401 0zm683 -402l-81 0 0 81 241 0 0 321 -401 0 0 -161 160 0 0 41 81 0 0 -81 -241 0 0 -321 401 0 0 160 -160 0 0 -40zm201 402l0 -522 160 0 0 402 81 0 0 -81 160 0 0 201 -401 0z"/>
 </g>
</svg>
